<?xml version="1.0" encoding="UTF-8" standalone="no"?>
<!-- Created with Inkscape (http://www.inkscape.org/) -->

<svg
   width="210mm"
   height="210mm"
   viewBox="0 0 210 210"
   version="1.1"
   id="svg5"
   inkscape:version="1.1.1 (1:1.1+202109281946+c3084ef5ed)"
   sodipodi:docname="empty.svg"
   xmlns:inkscape="http://www.inkscape.org/namespaces/inkscape"
   xmlns:sodipodi="http://sodipodi.sourceforge.net/DTD/sodipodi-0.dtd"
   xmlns="http://www.w3.org/2000/svg"
   xmlns:svg="http://www.w3.org/2000/svg">
  <sodipodi:namedview
     id="namedview7"
     pagecolor="#ffffff"
     bordercolor="#25ced1"
     borderopacity="1.0"
     inkscape:pageshadow="2"
     inkscape:pageopacity="0.0"
     inkscape:pagecheckerboard="0"
     inkscape:document-units="mm"
     showgrid="false"
     inkscape:zoom="0.90509668"
     inkscape:cx="337.533"
     inkscape:cy="568.44756"
     inkscape:window-width="2492"
     inkscape:window-height="1376"
     inkscape:window-x="1988"
     inkscape:window-y="27"
     inkscape:window-maximized="1"
     inkscape:current-layer="layer1" />
  <defs
     id="defs2" />
  <g
     inkscape:label="Layer 1"
     inkscape:groupmode="layer"
     id="layer1">
    <path
       d="m 110.36933,99.416009 h 5.51841 c 3.04932,0 5.5184,2.471561 5.5184,5.523041 0,3.05189 -2.46949,5.52304 -5.5184,5.52304 h -5.51841 v 5.52304 c 0,3.05189 -2.46948,5.52304 -5.5184,5.52304 -3.04933,0 -5.518401,-2.47156 -5.518401,-5.52304 v -5.52304 h -5.518825 c -3.049327,0 -5.518403,-2.47156 -5.518403,-5.52304 0,-3.05189 2.4695,-5.523041 5.518403,-5.523041 h 5.518825 v -5.523041 c 0,-3.051889 2.469491,-5.523465 5.518401,-5.523465 3.04933,0 5.5184,2.471576 5.5184,5.523465 z m 71.74009,110.462081 c -3.04933,0 -5.5184,-2.47156 -5.5184,-5.52304 0,-3.05189 2.4695,-5.52304 5.5184,-5.52304 9.14339,0 16.55563,-7.41847 16.55563,-16.56955 0,-3.05189 2.4695,-5.52304 5.5184,-5.52304 3.04933,0 5.51841,2.47158 5.51841,5.52304 0,15.25193 -12.35373,27.61563 -27.59244,27.61563 z M 27.592023,198.83201 c 3.049325,0 5.51882,2.47157 5.51882,5.52304 0,3.05189 -2.469495,5.52304 -5.51882,5.52304 C 12.353318,209.87809 0,197.51439 0,182.26246 v -0.68051 c 0,-3.05189 2.4694953,-5.52304 5.5184042,-5.52304 3.0493268,0 5.5184038,2.47156 5.5184038,5.52304 v 0.68051 c 0,9.15108 7.412241,16.56955 16.555215,16.56955 z M 11.036808,27.615627 c 0,3.05189 -2.4694948,5.523041 -5.5184038,5.523041 C 2.4690788,33.138668 0,30.667092 0,27.615627 0,12.363694 12.353318,0 27.592023,0 c 3.049325,0 5.51882,2.4715626 5.51882,5.5230405 0,3.0518894 -2.469495,5.5230405 -5.51882,5.5230405 -9.142974,0 -16.555215,7.418471 -16.555215,16.569546 z M 182.10942,11.046081 c -3.04933,0 -5.5184,-2.4715759 -5.5184,-5.5230405 C 176.59102,2.4711511 179.06052,0 182.10942,0 c 15.23871,0 27.59244,12.363694 27.59244,27.615627 0,3.05189 -2.46949,5.523041 -5.51841,5.523041 -3.04932,0 -5.5184,-2.471576 -5.5184,-5.523041 0,-9.151075 -7.41224,-16.569546 -16.55563,-16.569546 z M 0,49.707789 c 0,-3.051889 2.4694953,-5.52304 5.5184042,-5.52304 3.0493268,0 5.5184038,2.471576 5.5184038,5.52304 V 60.7543 c 0,3.05189 -2.4694948,5.523041 -5.5184038,5.523041 C 2.4690788,66.277341 0,63.805765 0,60.7543 Z m 0,33.138674 c 0,-3.05189 2.4694953,-5.523041 5.5184042,-5.523041 3.0493268,0 5.5184038,2.471576 5.5184038,5.523041 v 11.046505 c 0,3.05189 -2.4694948,5.523041 -5.5184038,5.523041 C 2.4690788,99.416009 0,96.944433 0,93.892968 Z m 0,33.138667 c 0,-3.05189 2.4694953,-5.52304 5.5184042,-5.52304 3.0493268,0 5.5184038,2.47158 5.5184038,5.52304 v 11.04651 c 0,3.05189 -2.4694948,5.52304 -5.5184038,5.52304 C 2.4690788,132.55468 0,130.0831 0,127.03164 Z m 0,33.13866 c 0,-3.05189 2.4694953,-5.52304 5.5184042,-5.52304 3.0493268,0 5.5184038,2.47158 5.5184038,5.52304 v 11.04651 c 0,3.05189 -2.4694948,5.52304 -5.5184038,5.52304 C 2.4690788,165.69334 0,163.22176 0,160.1703 Z M 198.66505,49.707789 c 0,-3.051889 2.4695,-5.52304 5.5184,-5.52304 3.04933,0 5.51841,2.471576 5.51841,5.52304 V 60.7543 c 0,3.05189 -2.46949,5.523041 -5.51841,5.523041 -3.04932,0 -5.5184,-2.471576 -5.5184,-5.523041 z m 0,33.138674 c 0,-3.05189 2.4695,-5.523041 5.5184,-5.523041 3.04933,0 5.51841,2.471576 5.51841,5.523041 v 11.046505 c 0,3.05189 -2.46949,5.523041 -5.51841,5.523041 -3.04932,0 -5.5184,-2.471576 -5.5184,-5.523041 z m 0,33.138667 c 0,-3.05189 2.4695,-5.52304 5.5184,-5.52304 3.04933,0 5.51841,2.47158 5.51841,5.52304 v 11.04651 c 0,3.05189 -2.46949,5.52304 -5.51841,5.52304 -3.04932,0 -5.5184,-2.47158 -5.5184,-5.52304 z m 0,33.13866 c 0,-3.05189 2.4695,-5.52304 5.5184,-5.52304 3.04933,0 5.51841,2.47158 5.51841,5.52304 v 11.04651 c 0,3.05189 -2.46949,5.52304 -5.51841,5.52304 -3.04932,0 -5.5184,-2.47158 -5.5184,-5.52304 z m -38.62965,49.70822 c 3.04931,0 5.51881,2.47157 5.51881,5.52304 0,3.05189 -2.4695,5.52304 -5.51881,5.52304 h -11.03682 c -3.04933,0 -5.51841,-2.47156 -5.51841,-5.52304 0,-3.05189 2.4695,-5.52304 5.51841,-5.52304 z m -33.11086,0 c 3.04933,0 5.51883,2.47157 5.51883,5.52304 0,3.05189 -2.4695,5.52304 -5.51883,5.52304 h -11.0368 c -3.04933,0 -5.51841,-2.47156 -5.51841,-5.52304 0,-3.05189 2.4695,-5.52304 5.51841,-5.52304 z m -33.110836,0 c 3.049327,0 5.518825,2.47157 5.518825,5.52304 0,3.05189 -2.469498,5.52304 -5.518825,5.52304 H 82.776898 c -3.049327,0 -5.518403,-2.47156 -5.518403,-5.52304 0,-3.05189 2.469501,-5.52304 5.518403,-5.52304 z m -33.110839,0 c 3.049326,0 5.518824,2.47157 5.518824,5.52304 0,3.05189 -2.469498,5.52304 -5.518824,5.52304 H 49.666056 c -3.049325,0 -5.518404,-2.47156 -5.518404,-5.52304 0,-3.05189 2.469495,-5.52304 5.518404,-5.52304 z M 160.0354,0 c 3.04931,0 5.51881,2.4715626 5.51881,5.5230405 0,3.0518894 -2.4695,5.5230405 -5.51881,5.5230405 h -11.03682 c -3.04933,0 -5.51841,-2.4715759 -5.51841,-5.5230405 C 143.48017,2.4711511 145.94967,0 148.99858,0 Z m -33.11086,0 c 3.04933,0 5.51883,2.4715626 5.51883,5.5230405 0,3.0518894 -2.4695,5.5230405 -5.51883,5.5230405 h -11.0368 c -3.04933,0 -5.51841,-2.4715759 -5.51841,-5.5230405 C 110.36933,2.4711511 112.83883,0 115.88774,0 Z M 93.813704,0 c 3.049327,0 5.518825,2.4715626 5.518825,5.5230405 0,3.0518894 -2.469498,5.5230405 -5.518825,5.5230405 H 82.776898 c -3.049327,0 -5.518403,-2.4715759 -5.518403,-5.5230405 C 77.258495,2.4711511 79.727996,0 82.776898,0 Z M 60.702865,0 c 3.049326,0 5.518824,2.4715626 5.518824,5.5230405 0,3.0518894 -2.469498,5.5230405 -5.518824,5.5230405 H 49.666056 c -3.049325,0 -5.518404,-2.4715759 -5.518404,-5.5230405 C 44.147652,2.4711511 46.617147,0 49.666056,0 Z m 38.629664,138.07771 c 0,-3.05189 2.469491,-5.52303 5.518401,-5.52303 3.04933,0 5.5184,2.47157 5.5184,5.52303 v 11.04608 c 0,3.05189 -2.46948,5.52304 -5.5184,5.52304 -3.04933,0 -5.518401,-2.47156 -5.518401,-5.52304 z m 0,-77.32341 c 0,-3.051889 2.469491,-5.523465 5.518401,-5.523465 3.04933,0 5.5184,2.471576 5.5184,5.523465 v 11.046082 c 0,3.051889 -2.46948,5.52304 -5.5184,5.52304 -3.04933,0 -5.518401,-2.471576 -5.518401,-5.52304 z m 0,-33.138673 c 0,-3.051889 2.469491,-5.523465 5.518401,-5.523465 3.04933,0 5.5184,2.471576 5.5184,5.523465 v 11.046081 c 0,3.05189 -2.46948,5.523041 -5.5184,5.523041 -3.04933,0 -5.518401,-2.471576 -5.518401,-5.523041 z m 0,143.600753 c 0,-3.05189 2.469491,-5.52304 5.518401,-5.52304 3.04933,0 5.5184,2.47158 5.5184,5.52304 v 11.04608 c 0,3.05189 -2.46948,5.52305 -5.5184,5.52305 -3.04933,0 -5.518401,-2.47157 -5.518401,-5.52305 z M 27.592023,110.46209 c -3.049327,0 -5.518406,-2.47156 -5.518406,-5.52304 0,-3.05189 2.469497,-5.523041 5.518406,-5.523041 h 11.037225 c 3.049326,0 5.518404,2.471561 5.518404,5.523041 0,3.05189 -2.469495,5.52304 -5.518404,5.52304 z m 33.110842,0 c -3.049326,0 -5.518405,-2.47156 -5.518405,-5.52304 0,-3.05189 2.469496,-5.523041 5.518405,-5.523041 h 11.037227 c 3.049327,0 5.518403,2.471561 5.518403,5.523041 0,3.05189 -2.4695,5.52304 -5.518403,5.52304 z m 77.258905,0 c -3.04933,0 -5.5184,-2.47156 -5.5184,-5.52304 0,-3.05189 2.4695,-5.523041 5.5184,-5.523041 h 11.03681 c 3.04932,0 5.5184,2.471561 5.5184,5.523041 0,3.05189 -2.46949,5.52304 -5.5184,5.52304 z m 33.11084,0 c -3.04932,0 -5.5184,-2.47156 -5.5184,-5.52304 0,-3.05189 2.4695,-5.523041 5.5184,-5.523041 h 11.03681 c 3.04933,0 5.51841,2.471561 5.51841,5.523041 0,3.05189 -2.4695,5.52304 -5.51841,5.52304 z"
       id="path4394"
       style="stroke-width:11.0416;fill:#25ced1" />
  </g>
</svg>
