<?xml version="1.0" encoding="UTF-8" standalone="no"?>
<!-- Generator: Adobe Illustrator 16.0.0, SVG Export Plug-In . SVG Version: 6.00 Build 0)  -->

<svg
   version="1.1"
   id="Capa_1"
   x="0px"
   y="0px"
   width="27.774px"
   height="27.774px"
   viewBox="0 0 27.774 27.774"
   style="enable-background:new 0 0 27.774 27.774;"
   xml:space="preserve"
   sodipodi:docname="question-mark.svg"
   inkscape:version="1.1.1 (1:1.1+202109281946+c3084ef5ed)"
   xmlns:inkscape="http://www.inkscape.org/namespaces/inkscape"
   xmlns:sodipodi="http://sodipodi.sourceforge.net/DTD/sodipodi-0.dtd"
   xmlns="http://www.w3.org/2000/svg"
   xmlns:svg="http://www.w3.org/2000/svg"><defs
   id="defs39" /><sodipodi:namedview
   id="namedview37"
   pagecolor="#ffffff"
   bordercolor="#666666"
   borderopacity="1.0"
   inkscape:pageshadow="2"
   inkscape:pageopacity="0.0"
   inkscape:pagecheckerboard="0"
   showgrid="false"
   inkscape:zoom="32.368402"
   inkscape:cx="13.887"
   inkscape:cy="13.887"
   inkscape:window-width="2492"
   inkscape:window-height="1376"
   inkscape:window-x="1988"
   inkscape:window-y="27"
   inkscape:window-maximized="1"
   inkscape:current-layer="Capa_1" />
<g
   id="g4"
   transform="matrix(0.97013225,0,0,0.97013225,0.41478836,0.41478836)"
   style="fill:#1e90ff;fill-opacity:1">
	<path
   d="m 10.398,22.811 h 4.618 v 4.964 H 10.398 Z M 21.058,1.594 C 19.854,0.532 17.612,0 14.33,0 10.619,0 8.125,0.514 6.848,1.543 5.571,2.57 4.932,4.57 4.932,7.543 L 4.911,8.551 H 9.488 L 9.468,7.502 c 0,-1.424 0.303,-2.377 0.907,-2.854 0.604,-0.477 1.814,-0.717 3.632,-0.717 1.936,0 3.184,0.228 3.74,0.676 0.559,0.451 0.837,1.457 0.837,3.017 0,1.883 -0.745,3.133 -2.237,3.752 l -1.797,0.766 c -1.882,0.781 -3.044,1.538 -3.489,2.27 -0.442,0.732 -0.665,2.242 -0.665,4.529 h 4.68 v -0.646 c 0,-1.41 0.987,-2.533 2.965,-3.365 2.03,-0.861 3.343,-1.746 3.935,-2.651 0.592,-0.908 0.888,-2.498 0.888,-4.771 C 22.863,4.625 22.261,2.655 21.058,1.594 Z"
   id="path2"
   style="fill:#1e90ff;fill-opacity:1" />
</g>
<g
   id="g6">
</g>
<g
   id="g8">
</g>
<g
   id="g10">
</g>
<g
   id="g12">
</g>
<g
   id="g14">
</g>
<g
   id="g16">
</g>
<g
   id="g18">
</g>
<g
   id="g20">
</g>
<g
   id="g22">
</g>
<g
   id="g24">
</g>
<g
   id="g26">
</g>
<g
   id="g28">
</g>
<g
   id="g30">
</g>
<g
   id="g32">
</g>
<g
   id="g34">
</g>
</svg>
