<?xml version="1.0" encoding="UTF-8" standalone="no"?>
<!-- Created with Inkscape (http://www.inkscape.org/) -->

<svg
   width="64mm"
   height="64mm"
   viewBox="0 0 64 64"
   version="1.1"
   id="svg5"
   inkscape:version="1.1.1 (1:1.1+202109281946+c3084ef5ed)"
   sodipodi:docname="switch.svg"
   xmlns:inkscape="http://www.inkscape.org/namespaces/inkscape"
   xmlns:sodipodi="http://sodipodi.sourceforge.net/DTD/sodipodi-0.dtd"
   xmlns="http://www.w3.org/2000/svg"
   xmlns:svg="http://www.w3.org/2000/svg">
  <sodipodi:namedview
     id="namedview7"
     pagecolor="#ffffff"
     bordercolor="#666666"
     borderopacity="1.0"
     inkscape:pageshadow="2"
     inkscape:pageopacity="0.0"
     inkscape:pagecheckerboard="true"
     inkscape:document-units="px"
     showgrid="false"
     inkscape:zoom="3.2035073"
     inkscape:cx="143.12438"
     inkscape:cy="110.97212"
     inkscape:window-width="2492"
     inkscape:window-height="1376"
     inkscape:window-x="1988"
     inkscape:window-y="27"
     inkscape:window-maximized="1"
     inkscape:current-layer="layer1" />
  <defs
     id="defs2" />
  <g
     inkscape:label="Layer 1"
     inkscape:groupmode="layer"
     id="layer1">
    <g
       id="g2817"
       transform="matrix(0,-0.18665781,0.18665781,0,1.1805455,62.851739)"
       style="fill:#1e90ff;fill-opacity:1">
      <g
         id="XMLID_86_"
         style="fill:#1e90ff;fill-opacity:1">
	<path
   id="XMLID_87_"
   d="m 79.395,175.607 c 2.87,2.87 6.706,4.395 10.61,4.395 1.932,0 3.881,-0.374 5.736,-1.143 5.605,-2.321 9.26,-7.791 9.26,-13.858 v -60 h 210 c 8.284,0 15,-6.716 15,-15 0,-8.284 -6.716,-15 -15,-15 h -210 v -60 c 0,-6.066 -3.654,-11.536 -9.26,-13.858 C 90.136,-1.18 83.683,0.104 79.395,4.394 l -75,75 c -5.858,5.858 -5.858,15.355 0,21.213 z"
   style="fill:#1e90ff;fill-opacity:1" />

	<path
   id="XMLID_89_"
   d="m 250.607,154.394 c -4.29,-4.291 -10.742,-5.574 -16.347,-3.252 -5.605,2.322 -9.26,7.792 -9.26,13.858 v 60 H 15 c -8.284,0 -15,6.716 -15,15 0,8.284 6.716,15 15,15 h 210 v 60 c 0,6.067 3.654,11.537 9.26,13.858 1.855,0.769 3.805,1.143 5.736,1.143 3.904,0 7.741,-1.524 10.61,-4.395 l 75,-75 c 5.858,-5.857 5.858,-15.354 0,-21.213 z"
   style="fill:#1e90ff;fill-opacity:1" />

</g>
      <g
         id="g2764"
         style="fill:#1e90ff;fill-opacity:1">
</g>
      <g
         id="g2766"
         style="fill:#1e90ff;fill-opacity:1">
</g>
      <g
         id="g2768"
         style="fill:#1e90ff;fill-opacity:1">
</g>
      <g
         id="g2770"
         style="fill:#1e90ff;fill-opacity:1">
</g>
      <g
         id="g2772"
         style="fill:#1e90ff;fill-opacity:1">
</g>
      <g
         id="g2774"
         style="fill:#1e90ff;fill-opacity:1">
</g>
      <g
         id="g2776"
         style="fill:#1e90ff;fill-opacity:1">
</g>
      <g
         id="g2778"
         style="fill:#1e90ff;fill-opacity:1">
</g>
      <g
         id="g2780"
         style="fill:#1e90ff;fill-opacity:1">
</g>
      <g
         id="g2782"
         style="fill:#1e90ff;fill-opacity:1">
</g>
      <g
         id="g2784"
         style="fill:#1e90ff;fill-opacity:1">
</g>
      <g
         id="g2786"
         style="fill:#1e90ff;fill-opacity:1">
</g>
      <g
         id="g2788"
         style="fill:#1e90ff;fill-opacity:1">
</g>
      <g
         id="g2790"
         style="fill:#1e90ff;fill-opacity:1">
</g>
      <g
         id="g2792"
         style="fill:#1e90ff;fill-opacity:1">
</g>
    </g>
  </g>
</svg>
