<?xml version="1.0" encoding="UTF-8" standalone="no"?>
<!-- Created with Inkscape (http://www.inkscape.org/) -->

<svg
   width="210mm"
   height="297mm"
   viewBox="0 0 210 297"
   version="1.1"
   id="svg5"
   inkscape:version="1.1.2 (0a00cf5339, 2022-02-04)"
   sodipodi:docname="chevron.svg"
   xmlns:inkscape="http://www.inkscape.org/namespaces/inkscape"
   xmlns:sodipodi="http://sodipodi.sourceforge.net/DTD/sodipodi-0.dtd"
   xmlns="http://www.w3.org/2000/svg"
   xmlns:svg="http://www.w3.org/2000/svg">
  <sodipodi:namedview
     id="namedview7"
     pagecolor="#ffffff"
     bordercolor="#666666"
     borderopacity="1.0"
     inkscape:pageshadow="2"
     inkscape:pageopacity="0.0"
     inkscape:pagecheckerboard="0"
     inkscape:document-units="mm"
     showgrid="false"
     inkscape:zoom="0.47443802"
     inkscape:cx="435.25179"
     inkscape:cy="485.83796"
     inkscape:window-width="2486"
     inkscape:window-height="1376"
     inkscape:window-x="1920"
     inkscape:window-y="27"
     inkscape:window-maximized="1"
     inkscape:current-layer="layer1" />
  <defs
     id="defs2" />
  <g
     inkscape:label="Layer 1"
     inkscape:groupmode="layer"
     id="layer1">
    <path
       style="fill:#25ced1;stroke-width:0.390908;fill-opacity:1"
       d="M 10.663126,221.46615 C 6.260012,220.40485 4.2611189,215.17038 6.8143393,211.3874 7.3558393,210.58509 20.229285,196.14303 35.421999,179.29395 52.043627,160.86015 62.964121,148.44817 62.841756,148.12929 62.729913,147.83782 50.185549,133.78145 34.965397,116.89292 19.745249,100.00437 6.8966037,85.459591 6.4128542,84.571171 c -1.1122506,-2.042662 -1.1122506,-3.602391 0,-5.804057 1.105181,-2.187692 2.8840934,-3.385888 5.4924458,-3.699492 1.117898,-0.134448 11.003894,-0.189926 21.968877,-0.123367 19.066343,0.115684 19.999735,0.155103 21.389238,0.902796 1.903615,1.024345 62.574165,68.419079 63.194415,70.198309 0.5568,1.59725 0.5568,3.03321 0,4.63045 -0.62025,1.77923 -61.2908,69.17396 -63.194415,70.19831 -1.396583,0.7515 -2.263633,0.7843 -22.36651,0.84603 -11.502483,0.0353 -21.507684,-0.0789 -22.233779,-0.25397 z m 86.929147,0.0287 c -4.197604,-1.03631 -6.327094,-5.25473 -4.575034,-9.06287 0.517448,-1.12468 10.494011,-12.48492 28.776671,-32.76782 15.39155,-17.07547 27.98464,-31.16208 27.98464,-31.30358 0,-0.14154 -12.59309,-14.2281 -27.98464,-31.30358 C 103.51125,96.774092 93.534687,85.413835 93.017239,84.289171 c -1.432638,-3.113888 -0.147301,-6.855366 2.933868,-8.540282 1.138257,-0.62242 3.114659,-0.693869 22.062333,-0.797483 13.59806,-0.07432 21.33771,0.02778 22.32847,0.2945 0.83402,0.224572 2.01297,0.798931 2.61989,1.276339 2.04665,1.609891 61.65252,68.112525 62.18715,69.382585 0.67483,1.60309 0.67317,3.30972 -0.004,4.93224 -0.77869,1.86373 -60.95361,68.63579 -62.94111,69.84155 l -1.61088,0.97728 -20.9136,0.0643 c -11.50248,0.0353 -21.441322,-0.066 -22.086317,-0.2253 z"
       id="path1810" />
  </g>
</svg>
